# xmcd
#
# Track frame offsets: 
#        150
#        21865
#        39685
#        58252
#        78892
#        93000
#        107475
#        136332
#        155162
#        171350
#        191645
#        207907
#        222675
#
# Disc length: 3229 seconds
#
# Revision: 2
# Processed by: cddbd v1.5.1PL2 Copyright (c) Steve Scherf et al.
# Submitted via: ExactAudioCopy v0.95a5
#
DISCID=b90c9b0d
DTITLE=Chris Norman - Reflections
DYEAR=1995
DGENRE=Rock
TTITLE0=Reflections Of My Life
TTITLE1=Under Your Spell
TTITLE2=Obsession
TTITLE3=Cryin' Time
TTITLE4=Long Way From Home
TTITLE5=Independent Girl
TTITLE6=All Aboard For America
TTITLE7=If I Get Lucky
TTITLE8=Miss You
TTITLE9=Maybe Tomorrow
TTITLE10=Don't Fence Me In
TTITLE11=One Night Stand
TTITLE12=Lost In Flight
EXTD=
EXTT0=
EXTT1=
EXTT2=
EXTT3=
EXTT4=
EXTT5=
EXTT6=
EXTT7=
EXTT8=
EXTT9=
EXTT10=
EXTT11=
EXTT12=
PLAYORDER=
